<?xml version="1.0" encoding="UTF-8" standalone="no"?><!-- Generator: Gravit.io --><svg xmlns="http://www.w3.org/2000/svg" xmlns:xlink="http://www.w3.org/1999/xlink" style="isolation:isolate" viewBox="0 0 1534.141 482" width="1534.141pt" height="482pt"><clipPath id="_clipPath_ltGQcipBUGZ344o1xsmJzY3u9tNV4gix"><rect x="67.029" y="0" width="1440" height="320" transform="matrix(1,0,0,1,0,0)" id="test3" fill="rgb(255,255,255)"/></clipPath><g clip-path="url(#_clipPath_ltGQcipBUGZ344o1xsmJzY3u9tNV4gix)"><g id="Group"><path d=" M 67.029 160 L 247.029 128 L 427.029 256 L 607.029 160 L 787.029 224 L 967.029 128 L 1147.029 256 L 1327.029 256 L 1507.029 64 L 1507.029 320 L 1327.029 320 L 1147.029 320 L 967.029 320 L 787.029 320 L 607.029 320 L 427.029 350 L 247.029 320 L 67.029 320 L 67.029 160 Z " id="Path" fill="rgb(54,199,92)"/><path d=" M 737.029 208.481 L 789.029 136.481 L 837.029 201.481 L 737.029 208.481 Z " id="Path" fill="rgb(54,199,92)"/><path d=" M 832.327 195.637 L 712.506 208.481 L 777.666 245.888 L 848.088 239.507 L 832.327 195.637 Z " id="Path" fill="rgb(54,199,92)"/><path d=" M 810.029 168 L 878.029 185 L 810.029 214 L 810.029 168 Z " id="Path" fill="rgb(54,199,92)"/><circle vector-effect="non-scaling-stroke" cx="869.0290225977619" cy="182.48062066044452" r="10" id="Ellipse" fill="rgb(97,255,139)"/><circle vector-effect="non-scaling-stroke" cx="967.0290225977619" cy="126.48062066044443" r="10" id="Ellipse" fill="rgb(97,255,139)"/><circle vector-effect="non-scaling-stroke" cx="820.0290225977619" cy="168" r="10" id="Ellipse" fill="rgb(97,255,139)"/><circle vector-effect="non-scaling-stroke" cx="787.0290225977619" cy="136.48062066044446" r="10" id="Ellipse" fill="rgb(97,255,139)"/><circle vector-effect="non-scaling-stroke" cx="427.0290225977619" cy="245.8875177738779" r="10" id="Ellipse" fill="rgb(97,255,139)"/><circle vector-effect="non-scaling-stroke" cx="607.0290225977619" cy="156.48062066044452" r="10" id="Ellipse" fill="rgb(97,255,139)"/><circle vector-effect="non-scaling-stroke" cx="247.02902259776192" cy="126.48062066044443" r="10" id="Ellipse" fill="rgb(97,255,139)"/><circle vector-effect="non-scaling-stroke" cx="737.0290225977619" cy="201" r="10" id="Ellipse" fill="rgb(97,255,139)"/><ellipse vector-effect="non-scaling-stroke" cx="1498.0758975977617" cy="68.14913974719093" rx="8.953125000000227" ry="8.94601474719093" id="Ellipse" fill="rgb(97,255,139)"/><circle vector-effect="non-scaling-stroke" cx="1147.029022597762" cy="255.8875177738779" r="10" id="Ellipse" fill="rgb(97,255,139)"/><circle vector-effect="non-scaling-stroke" cx="1327.029022597762" cy="255.8875177738779" r="10" id="Ellipse" fill="rgb(97,255,139)"/></g></g><path d=" M 1507.029 300 L 1507.029 401.124 L 67.029 401.124 L 67.029 300 L 1507.029 300 Z " id="Path" fill="rgb(54,199,92)"/><path d=" M 1507.029 268.876 L 1507.029 320 L 67.029 320 L 67.029 234.607 L 1507.029 234.607 L 1507.029 268.876 Z " id="Path" fill="none"/><g opacity="0.93"><clipPath id="_clipPath_f36Jm0exehQNc1JHmgciztkpXyAGVpou"><rect x="67.029" y="109.438" width="1440" height="320" transform="matrix(1,0,0,1,0,0)" id="Rectangle" fill="rgb(255,255,255)"/></clipPath><g clip-path="url(#_clipPath_f36Jm0exehQNc1JHmgciztkpXyAGVpou)"><g id="Group"><g opacity="0.85"><path d=" M 67.029 205.438 L 75.507 209.96 L 187.029 269.438 L 307.029 205.438 L 427.029 397.438 L 547.029 301.438 L 667.029 237.438 L 787.029 333.438 L 907.029 301.438 L 1027.029 333.438 L 1147.029 397.438 L 1267.029 205.438 L 1387.029 237.438 L 1507.029 173.438 L 1507.029 429.438 L 1387.029 429.438 L 1267.029 429.438 L 1147.029 429.438 L 1027.029 429.438 L 907.029 429.438 L 787.029 429.438 L 667.029 429.438 L 547.029 429.438 L 427.029 429.438 L 307.029 429.438 L 187.029 429.438 L 67.029 429.438 L 67.029 205.438 Z " id="Path" fill="rgb(9,120,148)"/></g><ellipse vector-effect="non-scaling-stroke" cx="1268.0290225977624" cy="207.93820224719101" rx="9" ry="8.499999999999972" id="Ellipse" fill="rgb(49,207,232)"/><ellipse vector-effect="non-scaling-stroke" cx="787.0290225977624" cy="327.93820224719104" rx="9" ry="8.5" id="Ellipse" fill="rgb(49,207,232)"/><ellipse vector-effect="non-scaling-stroke" cx="667.0290225977622" cy="237.43820224719107" rx="9" ry="8.5" id="Ellipse" fill="rgb(49,207,232)"/><ellipse vector-effect="non-scaling-stroke" cx="307.0290225977624" cy="207.93820224719101" rx="9.000000000000057" ry="8.499999999999972" id="Ellipse" fill="rgb(49,207,232)"/><ellipse vector-effect="non-scaling-stroke" cx="187.02902259776235" cy="269.43820224719104" rx="9.000000000000028" ry="8.5" id="Ellipse" fill="rgb(49,207,232)"/><ellipse vector-effect="non-scaling-stroke" cx="1027.0290225977622" cy="333.43820224719104" rx="9" ry="8.5" id="Ellipse" fill="rgb(49,207,232)"/><ellipse vector-effect="non-scaling-stroke" cx="907.0290225977622" cy="301.43820224719104" rx="9" ry="8.5" id="Ellipse" fill="rgb(49,207,232)"/><ellipse vector-effect="non-scaling-stroke" cx="427.0290225977624" cy="392.43820224719104" rx="9.000000000000057" ry="8.5" id="Ellipse" fill="rgb(49,207,232)"/><ellipse vector-effect="non-scaling-stroke" cx="1387.0290225977622" cy="237.43820224719104" rx="9" ry="8.5" id="Ellipse" fill="rgb(49,207,232)"/><ellipse vector-effect="non-scaling-stroke" cx="1147.0290225977624" cy="392.43820224719104" rx="9" ry="8.5" id="Ellipse" fill="rgb(49,207,232)"/><ellipse vector-effect="non-scaling-stroke" cx="1498.0290225977622" cy="173.93820224719104" rx="9" ry="8.5" id="Ellipse" fill="rgb(49,207,232)"/></g></g></g><ellipse vector-effect="non-scaling-stroke" cx="76.02902259776198" cy="209.5014044943818" rx="9.000000000000043" ry="8.5" id="Ellipse" fill="rgb(49,207,232)"/><ellipse vector-effect="non-scaling-stroke" cx="76.90402259776195" cy="162.25" rx="9.875" ry="8.874999999999972" id="Ellipse" fill="rgb(97,255,139)"/><g opacity="0.95"><path d=" M 1507.029 401.124 L 1507.029 480 L 67.029 477.75 L 67.029 401.124 L 1507.029 401.124 Z " id="Path" fill="rgb(9,120,148)"/></g><g opacity="0.89"><clipPath id="_clipPath_8wb4LARbNowJndZf6XRd05mK03vrgBao"><rect x="67.029" y="160.124" width="1440" height="320" transform="matrix(1,0,0,1,0,0)" id="test2" fill="rgb(255,255,255)"/></clipPath><g clip-path="url(#_clipPath_8wb4LARbNowJndZf6XRd05mK03vrgBao)"><g id="Group"><g opacity="0.91"><path d=" M 67.029 160.124 L 187.029 416.124 L 307.029 320.124 L 427.029 192.124 L 547.029 256.124 L 667.029 192.124 L 787.029 256.124 L 907.029 448.124 L 1027.029 352.124 L 1147.029 480.124 L 1267.029 352.124 L 1387.029 352.124 L 1507.029 256.124 L 1507.029 480.124 L 1387.029 480.124 L 1267.029 480.124 L 1147.029 480.124 L 1027.029 480.124 L 907.029 480.124 L 787.029 480.124 L 667.029 480.124 L 547.029 480.124 L 427.029 480.124 L 307.029 480.124 L 187.029 480.124 L 67.029 480.124 L 67.029 160.124 Z " id="Path" fill="rgb(195,19,151)"/></g><path d=" M 1257.76 353.143 C 1257.547 347.411 1262.291 342.576 1268.347 342.352 C 1274.402 342.127 1279.491 346.598 1279.703 352.33 C 1279.916 358.061 1275.172 362.896 1269.116 363.121 C 1263.061 363.345 1257.972 358.874 1257.76 353.143 Z " id="Ellipse" fill="rgb(255,0,166)"/><path d=" M 1016.057 353.143 C 1015.845 347.411 1020.589 342.576 1026.644 342.352 C 1032.7 342.127 1037.789 346.598 1038.001 352.33 C 1038.213 358.061 1033.469 362.896 1027.414 363.121 C 1021.358 363.345 1016.269 358.874 1016.057 353.143 Z " id="Ellipse" fill="rgb(255,0,166)"/><path d=" M 176.057 406.138 C 175.845 400.406 180.589 395.571 186.644 395.347 C 192.7 395.122 197.789 399.594 198.001 405.325 C 198.213 411.056 193.469 415.892 187.414 416.116 C 181.358 416.34 176.269 411.869 176.057 406.138 Z " id="Ellipse" fill="rgb(255,0,166)"/><path d=" M 416.057 192.53 C 415.845 186.799 420.589 181.964 426.644 181.739 C 432.7 181.515 437.789 185.986 438.001 191.718 C 438.213 197.449 433.469 202.284 427.414 202.509 C 421.358 202.733 416.269 198.262 416.057 192.53 Z " id="Ellipse" fill="rgb(255,0,166)"/><path d=" M 67.035 162.102 C 66.844 156.674 71.112 152.093 76.558 151.881 C 82.005 151.669 86.581 155.904 86.773 161.332 C 86.964 166.762 82.697 171.341 77.249 171.553 C 71.803 171.767 67.226 167.531 67.035 162.102 Z " id="Ellipse" fill="rgb(255,0,166)"/><path d=" M 536.057 246.138 C 535.845 240.406 540.589 235.571 546.644 235.347 C 552.7 235.122 557.789 239.594 558.001 245.325 C 558.213 251.056 553.469 255.892 547.414 256.116 C 541.358 256.34 536.269 251.869 536.057 246.138 Z " id="Ellipse" fill="rgb(255,0,166)"/><path d=" M 656.057 192.53 C 655.845 186.799 660.589 181.964 666.644 181.739 C 672.7 181.515 677.789 185.986 678.001 191.718 C 678.213 197.449 673.469 202.284 667.414 202.509 C 661.358 202.733 656.269 198.262 656.057 192.53 Z " id="Ellipse" fill="rgb(255,0,166)"/><path d=" M 896.057 438.138 C 895.845 432.406 900.589 427.571 906.644 427.347 C 912.7 427.122 917.789 431.594 918.001 437.325 C 918.213 443.056 913.469 447.892 907.414 448.116 C 901.358 448.34 896.269 443.869 896.057 438.138 Z " id="Ellipse" fill="rgb(255,0,166)"/><path d=" M 1485.078 256.53 C 1484.866 250.799 1489.61 245.964 1495.666 245.739 C 1501.721 245.515 1506.81 249.986 1507.022 255.718 C 1507.234 261.449 1502.49 266.284 1496.435 266.509 C 1490.379 266.733 1485.291 262.262 1485.078 256.53 Z " id="Ellipse" fill="rgb(255,0,166)"/><path d=" M 1376.057 353.143 C 1375.845 347.411 1380.589 342.576 1386.644 342.352 C 1392.7 342.127 1397.789 346.598 1398.001 352.33 C 1398.213 358.061 1393.469 362.896 1387.414 363.121 C 1381.358 363.345 1376.269 358.874 1376.057 353.143 Z " id="Ellipse" fill="rgb(255,0,166)"/><path d=" M 776.057 256.53 C 775.845 250.799 780.589 245.964 786.644 245.739 C 792.7 245.515 797.789 249.986 798.001 255.718 C 798.213 261.449 793.469 266.284 787.414 266.509 C 781.358 266.733 776.269 262.262 776.057 256.53 Z " id="Ellipse" fill="rgb(255,0,166)"/></g><path d=" M 1135.995 468.124 C 1135.783 462.392 1140.527 457.557 1146.582 457.333 C 1152.638 457.108 1157.727 461.58 1157.939 467.311 C 1158.151 473.042 1153.407 477.878 1147.352 478.102 C 1141.296 478.326 1136.207 473.855 1135.995 468.124 Z " id="Ellipse" fill="rgb(255,0,166)"/></g></g><line x1="1.998" y1="57.255" x2="1532.143" y2="57.255" id="Path" vector-effect="non-scaling-stroke" stroke-width="4" stroke="rgb(219,219,219)" stroke-linejoin="miter" stroke-linecap="square" stroke-miterlimit="3"/><line x1="1.998" y1="160" x2="1532.143" y2="160" id="Path" vector-effect="non-scaling-stroke" stroke-width="4" stroke="rgb(219,219,219)" stroke-linejoin="miter" stroke-linecap="square" stroke-miterlimit="3"/><line x1="1.998" y1="269.438" x2="1532.143" y2="269.438" id="Path" vector-effect="non-scaling-stroke" stroke-width="4" stroke="rgb(219,219,219)" stroke-linejoin="miter" stroke-linecap="square" stroke-miterlimit="3"/><line x1="1.998" y1="372.557" x2="1532.143" y2="372.557" id="Path" vector-effect="non-scaling-stroke" stroke-width="4" stroke="rgb(219,219,219)" stroke-linejoin="miter" stroke-linecap="square" stroke-miterlimit="3"/><line x1="1.998" y1="480" x2="1532.143" y2="480" id="Path" vector-effect="non-scaling-stroke" stroke-width="4" stroke="rgb(219,219,219)" stroke-linejoin="miter" stroke-linecap="square" stroke-miterlimit="3"/></svg>